<svg width="599" height="119" viewBox="0 0 599 119" fill="none" xmlns="http://www.w3.org/2000/svg">
<path d="M16.0704 82.944V87.9552C16.0704 99.8784 18.144 103.68 24.3648 103.68C29.2032 103.68 31.6224 99.7056 31.6224 92.2752C31.6224 84.8448 29.7216 80.1792 21.7728 69.6384L13.824 57.888C3.97441 43.0272 0.691201 35.0784 0.691201 24.8832C0.691201 9.6768 9.84959 0 24.3648 0C35.2512 0 43.2 6.2208 45.4464 16.7616C46.3104 21.0816 46.3104 21.6 46.3104 31.104L30.5856 32.6592C30.5856 26.784 30.4128 24.7104 30.0672 22.2912C29.5488 17.6256 26.9568 15.0336 23.328 15.0336C19.008 15.0336 16.5888 18.8352 16.5888 25.7472C16.5888 32.6592 17.28 34.3872 27.9936 50.4576L36.1152 62.208C43.5456 73.0944 47.6928 84.8448 47.6928 94.6944C47.6928 110.074 39.2256 118.714 24.192 118.714C15.552 118.714 9.50399 115.949 5.01119 109.901C1.20959 104.717 0 99.8784 0 89.856C0 87.4368 -7.04825e-06 86.4 0.172793 83.6352L16.0704 82.944Z" fill="white"></path>
<path d="M139.625 87.6096C139.625 101.434 139.106 104.198 135.996 109.21C132.194 115.085 124.937 118.714 116.815 118.714C108.693 118.714 101.436 115.085 97.6342 109.21C94.5238 104.198 94.0054 101.261 94.0054 87.6096V30.9312C94.0054 17.28 94.5238 14.3424 97.6342 9.3312C101.436 3.6288 108.693 0 116.815 0C124.937 0 132.194 3.6288 135.996 9.3312C139.106 14.3424 139.625 17.28 139.625 30.9312V87.6096ZM123.554 24.3648C123.554 17.7984 121.653 15.0336 116.815 15.0336C111.977 15.0336 110.076 17.7984 110.076 24.3648V94.3488C110.076 100.915 111.977 103.68 116.815 103.68C121.653 103.68 123.554 100.915 123.554 94.3488V24.3648Z" fill="white"></path>
<path d="M229.478 1.72803H248.832V116.986H235.008V35.5968L221.529 116.986H214.617L201.139 35.5968V116.986H187.661V1.72803H206.669L218.073 59.0976L229.478 1.72803Z" fill="white"></path>
<path d="M336.075 1.72803V16.7616H313.265V49.0752H329.163V64.1088H313.265V101.952H337.457V116.986H297.195V1.72803H336.075Z" fill="white"></path>
<path d="M397.766 1.72803C411.763 1.72803 416.947 3.45603 421.613 9.33123C426.451 15.3792 427.834 21.4272 427.834 36.1152C427.834 50.8032 426.451 57.3696 421.786 62.7264C417.638 67.5648 410.554 70.1568 400.877 70.1568H398.63V116.986H382.56V1.72803H397.766ZM400.877 55.296C410.381 55.296 412.282 52.1856 412.282 35.9424C412.282 19.6992 410.381 16.7616 400.877 16.7616H398.63V55.296H400.877Z" fill="white"></path>
<path d="M474.663 1.72803H490.733V101.952H513.543V116.986H474.663V1.72803Z" fill="white"></path>
<path d="M596.657 1.72803V16.7616H573.848V49.0752H589.745V64.1088H573.848V101.952H598.04V116.986H557.777V1.72803H596.657Z" fill="white"></path>
</svg>