<svg preserveAspectRatio="none" width="100%" height="100%" overflow="visible" style="display: block;" viewBox="0 0 192 192" fill="none" xmlns="http://www.w3.org/2000/svg">
<g id="Group">
<path id="Vector" d="M170.418 173.895C170.418 174.203 170.303 174.491 170.091 174.702L169.419 175.374C169.189 175.604 168.901 175.719 168.613 175.719C168.325 175.719 168.037 175.604 167.807 175.374L161.739 169.307L159.992 167.559L156.21 163.777L119 126.567L113.202 120.769C112.741 120.327 112.741 119.598 113.202 119.156L113.874 118.484C114.085 118.273 114.373 118.158 114.68 118.158C114.968 118.158 115.256 118.273 115.467 118.484L121.266 124.283L151.64 154.657L158.591 161.588L170.091 173.089C170.303 173.3 170.418 173.588 170.418 173.895Z" fill="url(#paint0_linear_0_4)"></path>
<path id="Vector_2" d="M30.4123 33.3882C29.6635 34.1754 28.9339 34.9818 28.2043 35.8074L24.4219 32.025C25.1515 31.2186 25.8811 30.4122 26.6491 29.625L30.4123 33.3882Z" fill="var(--fill-0, #F3F1FC)"></path>
<path id="Vector_3" d="M133.898 147.879L143.344 157.326C130.25 167.463 113.834 173.473 95.9971 173.473C53.2195 173.473 18.525 138.798 18.525 96.001C18.525 76.5514 25.7058 58.753 37.5522 45.1594L79.7731 87.3802C97.5715 111.975 97.1299 131.732 78.5443 156.251C75.8371 159.822 72.7651 163.489 69.2899 167.271C73.8787 163.201 78.2563 159.649 82.4803 156.635C101.085 143.329 116.58 140.334 133.898 147.879Z" fill="url(#paint1_linear_0_4)"></path>
<path id="Vector_4" d="M173.488 96.0019C173.488 116.527 165.481 135.208 152.464 149.071L142.614 139.221C135.126 121.96 137.968 106.255 151.12 87.9955C154.192 83.7139 157.859 79.2787 162.083 74.6707C158.301 78.0115 154.653 81.0067 151.139 83.6563C126.083 102.453 106.979 103.01 81.9614 84.9427L39.7406 42.7217C53.8718 27.8225 73.859 18.5297 95.9966 18.5297C138.793 18.5297 173.488 53.2051 173.488 96.0019Z" fill="url(#paint2_linear_0_4)"></path>
<path id="Vector_5" d="M192 96C192 70.3488 182.016 46.2528 163.891 28.1088C145.747 9.984 121.651 0 96 0C70.3488 0 46.2528 9.984 28.128 28.1088C27.6288 28.608 27.1296 29.1264 26.6496 29.6256C25.8816 30.4128 25.152 31.2192 24.4224 32.0256C8.6208 49.6512 0 72.1536 0 96C0 121.651 9.984 145.747 28.128 163.891C46.2528 182.016 70.368 192 96 192C118.33 192 139.469 184.435 156.538 170.515L152.736 166.714C137.203 179.213 117.466 186.701 96 186.701C45.984 186.701 5.2992 146.016 5.2992 96C5.2992 72.9408 13.9584 51.8208 28.2048 35.808C28.9344 34.9824 29.664 34.176 30.4128 33.3888C46.9632 16.0896 70.2336 5.2992 96 5.2992C146.016 5.2992 186.72 45.984 186.72 96C186.72 120.134 177.235 142.118 161.779 158.381L165.562 162.163C182.63 144.23 192 120.845 192 96Z" fill="url(#paint3_linear_0_4)"></path>
</g>
<defs>
<linearGradient id="paint0_linear_0_4" x1="175.755" y1="162.356" x2="107.519" y2="131.521" gradientUnits="userSpaceOnUse">
<stop stop-color="#92B6FF"></stop>
<stop offset="1" stop-color="#F6F2F9" stop-opacity="0"></stop>
</linearGradient>
<linearGradient id="paint1_linear_0_4" x1="29.5266" y1="175.22" x2="160.586" y2="16.033" gradientUnits="userSpaceOnUse">
<stop stop-color="#97CCFF"></stop>
<stop offset="1" stop-color="#A379C6"></stop>
</linearGradient>
<linearGradient id="paint2_linear_0_4" x1="30.3518" y1="175.893" x2="161.411" y2="16.7057" gradientUnits="userSpaceOnUse">
<stop stop-color="#97CCFF"></stop>
<stop offset="1" stop-color="#A379C6"></stop>
</linearGradient>
<linearGradient id="paint3_linear_0_4" x1="33.0432" y1="168.48" x2="158.957" y2="23.5008" gradientUnits="userSpaceOnUse">
<stop stop-color="#97CCFF"></stop>
<stop offset="1" stop-color="#A379C6"></stop>
</linearGradient>
</defs>
</svg>